<?xml version="1.0" standalone="no"?>
<!DOCTYPE svg PUBLIC "-//W3C//DTD SVG 20010904//EN"
 "http://www.w3.org/TR/2001/REC-SVG-20010904/DTD/svg10.dtd">
<svg version="1.0" xmlns="http://www.w3.org/2000/svg"
 width="512.000000pt" height="512.000000pt" viewBox="0 0 512.000000 512.000000"
 preserveAspectRatio="xMidYMid meet">

<g transform="translate(0.000000,512.000000) scale(0.100000,-0.100000)"
fill="#000000" stroke="none">
<path d="M2366 4679 c-141 -21 -316 -83 -443 -156 -320 -187 -537 -486 -618
-853 -12 -53 -18 -145 -22 -310 l-5 -235 -40 -30 c-42 -32 -93 -96 -123 -155
-43 -83 -45 -113 -45 -647 0 -461 2 -522 19 -625 104 -603 557 -1075 1164
-1209 144 -32 398 -37 552 -11 611 105 1074 548 1217 1165 20 87 22 123 25
641 4 530 3 551 -16 616 -25 83 -89 181 -146 223 l-42 32 -6 235 c-6 247 -14
306 -63 457 -147 451 -560 797 -1028 862 -89 13 -294 12 -380 0z m403 -440
c42 -10 122 -41 178 -69 174 -86 325 -248 401 -432 47 -113 62 -206 62 -383
l0 -155 -850 0 -850 0 0 155 c0 103 5 182 16 233 71 348 367 622 725 672 86
12 226 3 318 -21z m849 -1481 c15 -15 17 -819 2 -948 -19 -170 -83 -346 -177
-487 -48 -72 -160 -192 -233 -248 -318 -242 -740 -289 -1097 -120 -121 57
-192 105 -282 190 -158 150 -262 330 -313 543 -19 80 -21 124 -25 570 -4 368
-2 486 7 497 11 13 156 15 1059 15 801 0 1050 -3 1059 -12z"/>
<path d="M2487 2340 c-222 -39 -383 -262 -348 -481 38 -233 257 -396 482 -360
282 46 442 341 324 598 -79 174 -271 276 -458 243z"/>
</g>
</svg>
