<?xml version="1.0" standalone="no"?>
<!DOCTYPE svg PUBLIC "-//W3C//DTD SVG 20010904//EN"
 "http://www.w3.org/TR/2001/REC-SVG-20010904/DTD/svg10.dtd">
<svg version="1.0" xmlns="http://www.w3.org/2000/svg"
 width="512.000000pt" height="512.000000pt" viewBox="0 0 512.000000 512.000000"
 preserveAspectRatio="xMidYMid meet">

<g transform="translate(0.000000,512.000000) scale(0.100000,-0.100000)"
fill="#000000" stroke="none">
<path d="M2330 4510 c-314 -38 -627 -152 -885 -320 -139 -91 -234 -170 -360
-301 -165 -171 -258 -303 -365 -524 -119 -242 -178 -464 -202 -747 -25 -305
33 -652 156 -940 292 -681 910 -1146 1646 -1237 109 -14 371 -14 480 -1 665
83 1241 474 1558 1058 187 344 273 738 244 1116 -23 283 -83 506 -202 751
-114 234 -230 394 -416 575 -310 301 -670 484 -1094 555 -112 19 -450 28 -560
15z m555 -430 c338 -72 615 -227 860 -481 449 -468 575 -1149 326 -1756 -40
-96 -131 -263 -143 -263 -4 0 -17 19 -29 43 -38 74 -106 163 -176 227 -107 97
-211 153 -356 190 -83 20 -100 21 -833 18 l-749 -3 -70 -23 c-223 -75 -397
-219 -494 -410 -12 -23 -25 -42 -29 -42 -13 0 -118 200 -155 295 -167 425
-150 898 48 1311 154 320 455 618 777 768 123 58 255 101 382 126 146 28 153
28 356 25 140 -3 209 -9 285 -25z m466 -2467 c79 -39 160 -121 195 -197 13
-29 29 -89 34 -132 l10 -79 -27 -23 c-187 -155 -499 -289 -764 -328 -153 -22
-431 -15 -571 15 -235 51 -508 178 -671 313 l-27 23 10 79 c5 43 21 103 34
132 29 64 104 146 164 181 90 53 74 52 837 50 l710 -2 66 -32z"/>
<path d="M2445 3900 c-179 -27 -336 -108 -465 -239 -152 -155 -224 -318 -236
-536 -18 -311 156 -614 436 -759 206 -107 427 -124 649 -50 119 40 206 96 312
204 86 85 103 109 148 201 68 139 85 214 85 369 0 132 -12 197 -58 312 -74
182 -232 348 -412 429 -136 62 -322 90 -459 69z m210 -415 c152 -40 261 -148
301 -300 18 -66 17 -128 -1 -199 -21 -79 -56 -135 -125 -200 -83 -76 -147
-100 -270 -100 -123 0 -187 24 -270 100 -70 66 -105 121 -126 206 -55 214 78
433 299 493 69 18 120 18 192 0z"/>
</g>
</svg>
